<?xml version="1.0"?>
<svg xmlns="http://www.w3.org/2000/svg" height="512px" viewBox="-104 0 480 480.00003" width="512px"><g><path d="m248 0h-16c-13.253906 0-24 10.746094-24 24v184h-184c-13.253906 0-24 10.746094-24 24v16c0 .214844.0546875.414062.0625.632812l16 223.925782c.292969 4.175781 3.753906 7.417968 7.9375 7.441406h16c4.207031.011719 7.703125-3.238281 8-7.433594l4-56.566406h168l4 56.566406c.296875 4.195313 3.792969 7.445313 8 7.433594h16c4.207031.011719 7.703125-3.238281 8-7.433594l15.816406-221.925781.160156-2h-.039062c0-.214844.0625-.417969.0625-.632813v-224.007812c0-13.253906-10.746094-24-24-24zm-24 24c0-4.417969 3.582031-8 8-8h16c4.417969 0 8 3.582031 8 8v185.472656c-2.5625-.949218-5.269531-1.445312-8-1.472656h-24zm-191.449219 440h-1.101562l-13.769531-192.953125c2.023437.5625 28.609374.953125 28.609374.953125zm177.121094-192 6.863281 96h-161.070312l6.863281-96zm-156.503906 128 1.152343-16h163.359376l1.152343 16zm187.382812 64h-1.101562l-13.738281-192h22.289062c2.144531-.027344 4.277344-.351562 6.335938-.960938zm15.449219-216.257812v.394531c-.074219 4.363281-3.632812 7.863281-8 7.863281h-224c-4.34375 0-7.894531-3.464844-8-7.808594v-16.191406c0-4.417969 3.582031-8 8-8h224c4.417969 0 8 3.582031 8 8zm0 0" data-original="#000000" class="active-path" data-old_color="#fd4c4e" fill="#fd4c4e"/></g> </svg>
