<?xml version="1.0"?>
<svg xmlns="http://www.w3.org/2000/svg" xmlns:xlink="http://www.w3.org/1999/xlink" version="1.1" id="Capa_1" x="0px" y="0px" viewBox="0 0 480.038 480.038" style="enable-background:new 0 0 480.038 480.038;" xml:space="preserve" width="512px" height="512px"><g><g>
	<g>
		<path d="M305.206,400.382l-53.032-54.32c-4.417-4.631-10.536-7.252-16.936-7.256h-0.08c-6.405-0.01-12.538,2.59-16.984,7.2    l-6.808,6.968c-1.765,1.805-3.229,3.883-4.336,6.152l-9.712,20.344l-47.68-49.208l-48.96-47.312l20.08-9.84    c2.362-1.164,4.522-2.698,6.4-4.544l6.832-6.672c9.369-9.029,9.644-23.944,0.615-33.313c-0.201-0.209-0.406-0.414-0.615-0.615    l-54.4-53.08c-9.522-9.23-24.654-9.23-34.176,0l-7.288,7.12c-4.303,4.238-7.92,9.12-10.72,14.472L6.038,238.406    c-10.968,21.367-6.714,47.39,10.488,64.152l45.584,48.496c24.072,25.6,49.312,50.784,75.016,74.768l40.152,37.456    c16.76,17.377,42.92,21.735,64.408,10.728l41.92-21.48c5.327-2.791,10.186-6.397,14.4-10.688l7.2-7.328    C314.418,424.999,314.418,409.893,305.206,400.382z M293.638,423.374l-7.112,7.272c-3.026,3.081-6.513,5.672-10.336,7.68    l-41.752,21.432c-15.385,7.787-34.055,4.569-45.944-7.92l-40.456-37.712c-25.448-23.752-50.4-48.648-74.264-74.024l-45.824-48.8    c-12.318-11.873-15.432-30.401-7.672-45.648l21.4-41.76c2.013-3.847,4.615-7.357,7.712-10.4l7.2-7.072    c1.611-1.546,3.759-2.407,5.992-2.4c2.198-0.013,4.316,0.824,5.912,2.336l54.4,53.088c1.492,1.408,2.342,3.365,2.352,5.416    c0.004,2.117-0.864,4.143-2.4,5.6l-6.84,6.68c-0.671,0.654-1.444,1.194-2.288,1.6l-20.08,9.824    c-4.672,2.267-7.953,6.661-8.8,11.784c-0.826,5.097,0.885,10.277,4.584,13.88l48.872,47.376l47.552,49.072    c3.6,3.681,8.766,5.379,13.848,4.552c5.117-0.852,9.504-4.132,11.768-8.8l9.912-20.232c0.365-0.743,0.845-1.424,1.424-2.016    l6.808-6.968c1.567-1.37,3.527-2.21,5.6-2.4c2.073,0.018,4.048,0.885,5.464,2.4l52.968,54.28    C296.777,414.832,296.777,420.036,293.638,423.374z" data-original="#000000" class="active-path" data-old_color="#fd4c4e" fill="#fd4c4e"/>
	</g>
</g><g>
	<g>
		<path d="M456.038,0.006h-288c-13.255,0-24,10.745-24,24v160c0,13.255,10.745,24,24,24h80v80.872    c-0.063,6.842,4.283,12.947,10.768,15.128c1.716,0.595,3.52,0.9,5.336,0.904c4.884-0.008,9.489-2.277,12.472-6.144l71.312-90.76    h108.112c13.255,0,24-10.745,24-24v-160C480.038,10.751,469.293,0.006,456.038,0.006z M464.038,184.006c0,4.418-3.582,8-8,8    H347.926c-4.913-0.014-9.556,2.245-12.576,6.12l-71.312,90.752v-80.872c0-8.837-7.163-16-16-16h-80c-4.418,0-8-3.582-8-8v-160    c0-4.418,3.582-8,8-8h288c4.418,0,8,3.582,8,8V184.006z" data-original="#000000" class="active-path" data-old_color="#fd4c4e" fill="#fd4c4e"/>
	</g>
</g><g>
	<g>
		<path d="M384.038,80.006h-144c-4.418,0-8,3.582-8,8s3.582,8,8,8h16v72c0,4.418,3.582,8,8,8s8-3.582,8-8v-48h80v48    c0,4.418,3.582,8,8,8s8-3.582,8-8v-72h16c4.418,0,8-3.582,8-8S388.456,80.006,384.038,80.006z M352.038,104.006h-80v-8h80V104.006    z" data-original="#000000" class="active-path" data-old_color="#fd4c4e" fill="#fd4c4e"/>
	</g>
</g><g>
	<g>
		<path d="M232.038,112.006h-40v-56c0-4.418-3.582-8-8-8s-8,3.582-8,8v112c0,4.418,3.582,8,8,8s8-3.582,8-8v-40h32v40    c0,4.418,3.582,8,8,8s8-3.582,8-8v-48C240.038,115.588,236.456,112.006,232.038,112.006z" data-original="#000000" class="active-path" data-old_color="#fd4c4e" fill="#fd4c4e"/>
	</g>
</g><g>
	<g>
		<path d="M440.038,48.006c-4.418,0-8,3.582-8,8v56h-40c-4.418,0-8,3.582-8,8v48c0,4.418,3.582,8,8,8s8-3.582,8-8v-40h32v40    c0,4.418,3.582,8,8,8s8-3.582,8-8v-112C448.038,51.588,444.456,48.006,440.038,48.006z" data-original="#000000" class="active-path" data-old_color="#fd4c4e" fill="#fd4c4e"/>
	</g>
</g><g>
	<g>
		<path d="M432.044,227.047c-0.002-0.022-0.004-0.043-0.006-0.065c-0.566-6.603-6.377-11.498-12.98-10.932    c-6.603,0.566-11.498,6.377-10.932,12.98c0.53,6.191,5.699,10.953,11.912,10.976c0.344,0,0.696,0,1.048,0    C427.691,239.453,432.596,233.652,432.044,227.047z M423.134,230.582c-1.422,1.691-3.945,1.909-5.636,0.487    c-1.691-1.422-1.909-3.945-0.487-5.636c0.684-0.814,1.664-1.321,2.723-1.411c1.06-0.108,2.117,0.228,2.92,0.928    c0.808,0.68,1.314,1.652,1.408,2.704c0.073,1.065-0.275,2.116-0.968,2.928H423.134z" data-original="#000000" class="active-path" data-old_color="#fd4c4e" fill="#fd4c4e"/>
	</g>
</g><g>
	<g>
		<path d="M414.438,264.254c-6.493-1.327-12.832,2.86-14.16,9.352c-1.326,6.493,2.862,12.833,9.355,14.159    c0.002,0,0.003,0.001,0.005,0.001c0.79,0.159,1.594,0.239,2.4,0.24c5.7-0.003,10.612-4.015,11.752-9.6    C425.113,271.916,420.927,265.582,414.438,264.254z M415.958,276.806c-0.442,2.165-2.555,3.562-4.72,3.12    c-2.165-0.442-3.562-2.555-3.12-4.72c0.442-2.165,2.555-3.562,4.72-3.12C415.003,272.528,416.4,274.641,415.958,276.806z" data-original="#000000" class="active-path" data-old_color="#fd4c4e" fill="#fd4c4e"/>
	</g>
</g><g>
	<g>
		<path d="M407.518,320.518c-0.917-3.052-3.017-5.61-5.832-7.104c-5.846-3.121-13.116-0.912-16.237,4.934    s-0.912,13.116,4.934,16.238c5.846,3.121,13.116,0.912,16.237-4.934C408.118,326.846,408.441,323.561,407.518,320.518z     M399.566,325.886L399.566,325.886c-1.105,1.913-3.552,2.568-5.465,1.463c-1.821-1.052-2.516-3.334-1.591-5.223    c0.694-1.304,2.051-2.119,3.528-2.12c0.656,0.001,1.302,0.163,1.88,0.472C399.866,321.517,400.603,323.937,399.566,325.886z" data-original="#000000" class="active-path" data-old_color="#fd4c4e" fill="#fd4c4e"/>
	</g>
</g><g>
	<g>
		<path d="M371.853,355.443c-4.652-4.264-11.812-4.197-16.383,0.155h0.008c-4.448,4.913-4.071,12.502,0.841,16.95    c4.634,4.196,11.714,4.131,16.271-0.15C377.069,367.513,376.738,359.922,371.853,355.443z M366.886,366.846    c-1.61,1.513-4.141,1.434-5.654-0.176c-1.427-1.519-1.449-3.879-0.05-5.424L366.886,366.846l-5.696-5.6    c1.538-1.586,4.07-1.625,5.656-0.088v0.04C368.414,362.748,368.431,365.274,366.886,366.846z" data-original="#000000" class="active-path" data-old_color="#fd4c4e" fill="#fd4c4e"/>
	</g>
</g><g>
	<g>
		<path d="M327.334,384.462l0.016,0.008c-6.371-1.829-13.019,1.853-14.848,8.224s1.853,13.019,8.224,14.848    c1.077,0.307,2.192,0.463,3.312,0.464c6.627,0.011,12.009-5.353,12.019-11.981C336.066,390.653,332.503,385.929,327.334,384.462z     M327.878,397.11c-0.605,2.125-2.818,3.356-4.943,2.751c-2.125-0.605-3.356-2.818-2.751-4.943    c0.292-1.026,0.983-1.893,1.918-2.408c0.926-0.519,2.022-0.643,3.04-0.344C327.261,392.778,328.485,394.99,327.878,397.11z" data-original="#000000" class="active-path" data-old_color="#fd4c4e" fill="#fd4c4e"/>
	</g>
</g><g>
	<g>
		<path d="M89.942,137.542c-5.771-3.259-13.091-1.222-16.349,4.549c-0.004,0.006-0.007,0.012-0.011,0.019l0.008-0.008    c-3.253,5.774-1.21,13.092,4.564,16.345c5.774,3.253,13.092,1.21,16.345-4.564C97.751,148.112,95.711,140.798,89.942,137.542z     M87.523,149.972l-6.972-3.934l6.968,3.944c-1.089,1.924-3.532,2.601-5.456,1.512c-1.924-1.089-2.601-3.532-1.512-5.456    c1.089-1.924,3.532-2.601,5.456-1.512C87.927,145.613,88.604,148.049,87.523,149.972z" data-original="#000000" class="active-path" data-old_color="#fd4c4e" fill="#fd4c4e"/>
	</g>
</g><g>
	<g>
		<path d="M124.655,99.654C124.655,99.654,124.654,99.654,124.655,99.654c-4.613-4.759-12.21-4.877-16.969-0.265    c-4.759,4.613-4.877,12.21-0.265,16.969c4.613,4.759,12.21,4.877,16.969,0.265C129.149,112.01,129.267,104.413,124.655,99.654z     M115.975,112.006c-1.06-0.017-2.071-0.454-2.809-1.216c-0.739-0.762-1.145-1.787-1.128-2.848c0.035-2.184,1.816-3.936,4-3.936    h0.064c1.059,0.023,2.067,0.46,2.808,1.216c0.739,0.762,1.145,1.787,1.128,2.848C120.003,110.279,118.184,112.041,115.975,112.006    z" data-original="#000000" class="active-path" data-old_color="#fd4c4e" fill="#fd4c4e"/>
	</g>
</g></g> </svg>
