<?xml version="1.0"?>
<svg xmlns="http://www.w3.org/2000/svg" height="512px" viewBox="-30 0 512 512" width="512px"><g><path d="m106.394531 472c5.519531 0 10-4.480469 10-10s-4.480469-10-10-10-10 4.480469-10 10 4.480469 10 10 10zm0 0" data-original="#000000" class="active-path" data-old_color="#fd4c4e" fill="#fd4c4e"/><path d="m30.003906 512h392.78125c8.832032 0 17.175782-3.867188 22.886719-10.605469 5.710937-6.746093 8.15625-15.609375 6.707031-24.328125l-56.121094-336.710937c-.804687-4.820313-4.976562-8.355469-9.863281-8.355469h-50v-82c0-2.710938-1.136719-5.273438-2.921875-7.0625-.003906-.003906-.003906-.007812-.007812-.007812l-40-40c-1.875-1.875-4.417969-2.929688-7.070313-2.929688h-120c-2.652343 0-5.195312 1.054688-7.070312 2.929688l-40 40c-.003907 0-.003907.003906-.007813.007812-1.789062 1.789062-2.921875 4.34375-2.921875 7.0625v82h-50c-4.890625 0-9.0625 3.535156-9.863281 8.355469l-56.121094 336.710937c-1.453125 8.714844.992188 17.582032 6.703125 24.324219 5.710938 6.742187 14.054688 10.609375 22.890625 10.609375zm246.390625-380h-100v-72h100zm-140-72h20v72h-20zm160 0h20v72h-20zm-125.859375-40h111.714844l20 20h-151.714844zm-150.398437 460.355469 54.726562-328.355469h303.058594l54.726563 328.351562c.492187 2.949219-.300782 5.832032-2.234376 8.113282-1.933593 2.277344-4.640624 3.535156-7.628906 3.535156h-392.78125c-2.988281 0-5.699218-1.257812-7.628906-3.535156-1.933594-2.28125-2.726562-5.164063-2.238281-8.109375zm0 0" data-original="#000000" class="active-path" data-old_color="#fd4c4e" fill="#fd4c4e"/><path d="m256.394531 352h10v50c0 16.542969 13.457031 30 30 30 16.574219 0 30-13.425781 30-30 0-8.386719 0-185.601562 0-200 0-5.523438-4.476562-10-10-10-38.707031 0-70 31.324219-70 70v80c0 5.523438 4.476563 10 10 10zm40 60c-5.515625 0-10-4.484375-10-10v-50h20v50c0 5.519531-4.480469 10-10 10zm-30-150c0-24.484375 17.460938-44.453125 40-49.003906v119.003906h-40zm0 0" data-original="#000000" class="active-path" data-old_color="#fd4c4e" fill="#fd4c4e"/><path d="m166.394531 291v41h-10c-5.523437 0-10 4.476562-10 10v60c0 16.542969 13.457031 30 30 30s30-13.457031 30-30v-60c0-5.523438-4.476562-10-10-10h-10v-41.007812c22.792969-4.644532 40-24.84375 40-48.992188v-40c0-5.523438-4.476562-10-10-10-5.523437 0-10 4.476562-10 10v40c0 13.035156-8.363281 24.152344-20 28.28125v-68.28125c0-5.523438-4.476562-10-10-10-5.523437 0-10 4.476562-10 10v68.296875c-11.386719-4.023437-20-14.96875-20-28.296875v-40c0-5.523438-4.476562-10-10-10-5.523437 0-10 4.476562-10 10v40c0 24.378906 17.375 44.429688 40 49zm20 111c0 5.515625-4.488281 10-10 10-5.515625 0-10-4.484375-10-10v-50h20zm0 0" data-original="#000000" class="active-path" data-old_color="#fd4c4e" fill="#fd4c4e"/><path d="m136.394531 462c0 5.523438 4.476563 10 10 10h200c5.523438 0 10-4.476562 10-10s-4.476562-10-10-10h-200c-5.523437 0-10 4.476562-10 10zm0 0" data-original="#000000" class="active-path" data-old_color="#fd4c4e" fill="#fd4c4e"/></g> </svg>
