<?xml version="1.0"?>
<svg xmlns="http://www.w3.org/2000/svg" xmlns:xlink="http://www.w3.org/1999/xlink" version="1.1" id="Layer_1" x="0px" y="0px" viewBox="0 0 512.001 512.001" style="enable-background:new 0 0 512.001 512.001;" xml:space="preserve" width="512px" height="512px" class=""><g><g>
	<g>
		<g>
			<path d="M437.334,106.667h-32V53.334c0-5.888-4.779-10.667-10.667-10.667s-10.667,4.779-10.667,10.667v64     c0,5.888,4.779,10.667,10.667,10.667h42.667c5.888,0,10.667-4.779,10.667-10.667S443.222,106.667,437.334,106.667z" data-original="#000000" class="active-path" data-old_color="#fd4c4e" fill="#fd4c4e"/>
			<path d="M106.668,192c23.531,0,42.667-19.136,42.667-42.667c0-23.531-19.136-42.667-42.667-42.667     c-23.531,0-42.667,19.136-42.667,42.667C64.001,172.865,83.137,192,106.668,192z M106.668,128     c11.755,0,21.333,9.579,21.333,21.333c0,11.755-9.579,21.333-21.333,21.333c-11.755,0-21.333-9.579-21.333-21.333     C85.334,137.579,94.913,128,106.668,128z" data-original="#000000" class="active-path" data-old_color="#fd4c4e" fill="#fd4c4e"/>
			<path d="M160.001,426.667H61.91L21.1,243.03c-1.28-5.76-6.976-9.301-12.736-8.107c-5.76,1.28-9.387,6.976-8.107,12.736     l42.411,190.848v62.827c0,5.888,4.779,10.667,10.667,10.667s10.667-4.779,10.688-10.667V448h63.979v53.333     c0,5.888,4.779,10.667,10.667,10.667s10.667-4.779,10.667-10.667V448h10.667c5.888,0,10.667-4.779,10.667-10.667     C170.668,431.446,165.889,426.667,160.001,426.667z" data-original="#000000" class="active-path" data-old_color="#fd4c4e" fill="#fd4c4e"/>
			<path d="M224.001,341.334h-74.667V256c0-23.531-19.136-42.667-42.667-42.667c-23.531,0-42.667,19.136-42.667,42.667v117.333     c0,17.643,14.357,32,32,32h96V480c0,17.643,14.357,32,32,32s32-14.357,32-32V373.334     C256.001,355.691,241.644,341.334,224.001,341.334z M234.668,480c0,5.888-4.779,10.667-10.667,10.667     s-10.667-4.779-10.667-10.667v-85.333c0-5.888-4.779-10.667-10.667-10.667H96.001c-5.888,0-10.667-4.779-10.667-10.667V256     c0-11.755,9.579-21.333,21.333-21.333c11.755,0,21.333,9.579,21.333,21.333v96c0,5.888,4.779,10.667,10.667,10.667h85.333     c5.888,0,10.667,4.779,10.667,10.667V480z" data-original="#000000" class="active-path" data-old_color="#fd4c4e" fill="#fd4c4e"/>
			<path d="M394.668,0C329.964,0,277.334,52.63,277.334,117.334c0,64.704,52.629,117.333,117.333,117.333     s117.333-52.629,117.333-117.333C512.001,52.63,459.372,0,394.668,0z M394.668,213.334c-52.928,0-96-43.072-96-96     c0-52.928,43.072-96,96-96s96,43.072,96,96C490.668,170.262,447.596,213.334,394.668,213.334z" data-original="#000000" class="active-path" data-old_color="#fd4c4e" fill="#fd4c4e"/>
		</g>
	</g>
</g></g> </svg>
